<svg xmlns="http://www.w3.org/2000/svg" viewBox="0 0 512 512">
  <defs>
    <linearGradient id="f" x1="40" y1="32" x2="472" y2="480" gradientUnits="userSpaceOnUse">
      <stop stop-color="#059669"/>
      <stop offset="1" stop-color="#0891b2"/>
    </linearGradient>
  </defs>
  <rect width="512" height="512" rx="112" fill="url(#f)"/>
  <circle cx="278" cy="116" r="43" fill="#fff"/>
  <path d="M268 171c29-8 60 4 78 28l43 58 57 21c17 6 25 25 19 42-7 17-26 25-43 18l-68-25c-7-3-13-7-18-13l-26-34-28 75 63 67c13 14 12 36-2 49-14 13-36 12-49-2l-79-84c-9-10-12-24-7-37l26-70-43 34-58 6c-18 2-34-11-36-29-2-18 11-34 29-36l49-5 59-48c10-8 21-13 34-17Z" fill="#fff"/>
  <path d="M237 328 171 443c-10 17-31 22-48 13-17-10-22-31-13-48l72-125 55 45Z" fill="#fff"/>
  <rect x="44" y="50" width="126" height="84" rx="24" fill="#0f172a" fill-opacity=".88"/>
  <text x="107" y="111" fill="#fff" font-family="Arial, sans-serif" font-size="52" font-weight="800" text-anchor="middle">EF</text>
</svg>
